<?xml version="1.0" encoding="utf-8"?>
<!-- Generator: Adobe Illustrator 24.0.1, SVG Export Plug-In . SVG Version: 6.00 Build 0)  -->
<svg version="1.1" id="Layer_1" xmlns="http://www.w3.org/2000/svg" xmlns:xlink="http://www.w3.org/1999/xlink" x="0px" y="0px"
	 viewBox="0 0 143.5 99.2" style="enable-background:new 0 0 143.5 99.2;" xml:space="preserve">
<style type="text/css">
	.st0{fill:none;stroke:#081621;stroke-miterlimit:10;}
	.st1{fill:#081621;}
	.st2{fill:none;stroke:#000000;stroke-miterlimit:10;}
	.st3{enable-background:new    ;}
</style>
<g>
	<g>
		<path class="st0" d="M105.7,33.2c0,2.5-2,4.7-2.5,7.1c-0.6,2.4,0.3,5.3-0.8,7.4c-1.1,2.2-3.8,3.3-5.3,5.3
			c-1.5,1.9-2.1,4.8-3.9,6.3s-4.9,1.3-7.1,2.4c-2.2,1.1-3.9,3.5-6.3,4c-2.3,0.5-4.9-0.9-7.4-0.9s-5.1,1.4-7.4,0.9
			c-2.4-0.6-4.1-3-6.3-4c-2.2-1.1-5.2-0.9-7.1-2.4c-1.9-1.5-2.4-4.4-3.9-6.3c-1.5-1.9-4.2-3-5.3-5.3c-1.1-2.2-0.3-5.1-0.8-7.4
			c-0.5-2.3-2.5-4.6-2.5-7.1s2-4.7,2.5-7.1c0.6-2.4-0.3-5.3,0.8-7.4c1.1-2.2,3.8-3.3,5.3-5.3s2.1-4.8,3.9-6.3
			c1.9-1.5,4.9-1.3,7.1-2.4s3.9-3.5,6.3-4c2.3-0.5,4.9,0.9,7.4,0.9s5.1-1.4,7.4-0.9c2.3,0.6,4,3.1,6.2,4.2s5.2,0.9,7.1,2.4
			c1.9,1.5,2.4,4.4,3.9,6.3s4.2,3,5.3,5.3c1.1,2.2,0.3,5.1,0.8,7.4C103.7,28.4,105.7,30.7,105.7,33.2z"/>
	</g>
	<g>
		<path class="st1" d="M72.4,6.4c14.8,0,26.7,12,26.7,26.7S87.1,59.9,72.4,59.9s-26.7-12-26.7-26.7C45.7,18.4,57.7,6.4,72.4,6.4
			 M72.4,5.5c-15.3,0-27.6,12.4-27.6,27.6s12.4,27.6,27.6,27.6S100,48.3,100,33.1S87.6,5.5,72.4,5.5L72.4,5.5z"/>
	</g>
	<path class="st2" d="M67,45.2L56.1,34.3c-0.6-0.6-0.6-1.7,0-2.4l2.4-2.4c0.6-0.6,1.7-0.6,2.4,0l7.3,7.3l15.8-15.7
		c0.6-0.6,1.7-0.6,2.4,0l2.4,2.4c0.6,0.6,0.6,1.7,0,2.4L69.5,45.1C68.7,45.8,67.7,45.8,67,45.2L67,45.2z"/>
</g>
<g class="st3">
	<path d="M14.3,81v3.1H9v14.5H5.3V84.1H0V81H14.3z"/>
	<path d="M16.5,98.7V81h3.7v6.7H27V81h3.7v17.7H27v-7.9h-6.9v7.9H16.5z"/>
	<path d="M39.3,81h4.2l6.3,17.7h-4l-1.2-3.6H38l-1.2,3.6H33L39.3,81z M39,92h4.5l-2.2-7L39,92z"/>
	<path d="M51.9,81h3.9l7,12.3V81h3.4v17.7h-3.7l-7.2-12.5v12.5h-3.4V81z"/>
	<path d="M69.8,81h3.6v7.3l6.8-7.3H85l-7.3,7.3l7.6,10.4h-4.7L75.2,91l-1.8,1.8v5.9h-3.6V81z"/>
	<path d="M103.9,81h4.2l-5.9,11v6.6h-3.7v-6.6l-6.1-11h4.4l3.7,7.7L103.9,81z"/>
	<path d="M123.8,97.1c-1.3,1.4-3.3,2.1-5.8,2.1c-2.5,0-4.5-0.7-5.8-2.1c-1.8-1.7-2.7-4.1-2.7-7.3c0-3.2,0.9-5.7,2.7-7.3
		c1.3-1.4,3.3-2.1,5.8-2.1c2.5,0,4.5,0.7,5.8,2.1c1.8,1.6,2.7,4.1,2.7,7.3C126.5,93,125.6,95.4,123.8,97.1z M121.5,94.4
		c0.9-1.1,1.3-2.6,1.3-4.6c0-2-0.4-3.5-1.3-4.6c-0.9-1.1-2-1.6-3.5-1.6c-1.5,0-2.6,0.5-3.5,1.6c-0.9,1.1-1.3,2.6-1.3,4.6
		s0.4,3.5,1.3,4.6c0.9,1.1,2,1.6,3.5,1.6C119.5,96.1,120.7,95.5,121.5,94.4z"/>
	<path d="M129.3,81h3.8v10.9c0,1.2,0.1,2.1,0.4,2.7c0.4,1,1.4,1.5,2.9,1.5c1.5,0,2.5-0.5,2.9-1.5c0.3-0.6,0.4-1.4,0.4-2.7V81h3.8
		v10.9c0,1.9-0.3,3.3-0.9,4.4c-1.1,1.9-3.2,2.9-6.2,2.9c-3.1,0-5.1-1-6.2-2.9c-0.6-1-0.9-2.5-0.9-4.4V81z"/>
</g>
</svg>
