<?xml version="1.0" encoding="utf-8"?>
<!-- Generator: Adobe Illustrator 24.0.1, SVG Export Plug-In . SVG Version: 6.00 Build 0)  -->
<svg version="1.1" id="Layer_1" xmlns="http://www.w3.org/2000/svg" xmlns:xlink="http://www.w3.org/1999/xlink" x="0px" y="0px"
	 viewBox="0 0 253.01 145.56" style="enable-background:new 0 0 253.01 145.56;" xml:space="preserve">
<style type="text/css">
	.st0{fill:#081621;}
	.st1{fill:#0C1822;}
	.st2{opacity:0.6;}
	.st3{fill:none;}
	.st4{fill:#0F1923;}
	.st5{enable-background:new    ;}
	.st6{fill:#EEEEEE;}
</style>
<g>
	<g>
		<path class="st0" d="M190.53,13.33l-12.38,28.72l25.83,2.41L190.53,13.33z M34.22,55.52L0,58.74l33.7,29.63l-9.81,43.79
			l38.59-22.9l12.89,7.63l4.72-21.05L43.74,63.89L34.22,55.52z M253.01,58.68l-32.48-3.03l-9.26,8.15l-36.33,32l4.51,20.05
			l11.12-6.6l38.62,22.87l-9.85-43.78L253.01,58.68z M74.95,42.27L62.44,13.33L48.91,44.72l1.08-0.1L74.95,42.27z"/>
		<polygon class="st1" points="174.62,145.52 127.34,117.52 80.09,145.56 92.1,91.94 50.83,55.66 105.54,50.52 127.29,0.06 
			149.09,50.5 203.79,55.6 162.56,91.91 		"/>
		<g class="st2">
			<path class="st3" d="M190.53,15.65l11.99,27.74l-23.03-2.14L190.53,15.65 M62.44,15.65L73.6,41.47l-23.24,2.19L62.44,15.65
				 M33.91,56.47l9.22,8.1l35.95,31.6l-4.32,19.28l-11.8-6.99l-0.47-0.28l-0.47,0.28l-36.76,21.81l9.35-41.71l0.12-0.53l-0.41-0.36
				L2.21,59.46L33.91,56.47 M220.84,56.61l29.97,2.79l-32.08,28.25l-0.41,0.36l0.12,0.53l9.39,41.7l-36.79-21.78l-0.47-0.28
				l-0.47,0.28l-10.03,5.95l-4.12-18.28l35.92-31.63L220.84,56.61 M190.53,13.33l-12.38,28.72l25.83,2.41L190.53,13.33L190.53,13.33
				z M62.44,13.33L48.91,44.72l1.08-0.1l24.96-2.35L62.44,13.33L62.44,13.33z M34.22,55.52L0,58.74l33.7,29.63l-9.81,43.79
				l38.59-22.9l12.89,7.63l4.72-21.05L43.74,63.89L34.22,55.52L34.22,55.52z M220.53,55.66l-9.26,8.15l-36.33,32l4.51,20.05
				l11.12-6.6l38.62,22.87l-9.85-43.78l33.68-29.66L220.53,55.66L220.53,55.66z"/>
			<path class="st4" d="M127.48,2.32l20.96,48.48l0.22,0.5l0.54,0.05l52.58,4.9l-39.64,34.91l-0.41,0.36l0.12,0.53l11.6,51.53
				L128,116.67l-0.47-0.28l-0.47,0.28l-45.42,26.95l11.55-51.54l0.12-0.53l-0.41-0.36L53.23,56.32l52.58-4.94l0.54-0.05l0.22-0.5
				L127.48,2.32 M127.48,0l-21.75,50.46L51.02,55.6l41.27,36.28L80.27,145.5l47.25-28.04l47.28,28l-12.07-53.61l41.24-36.32
				l-54.71-5.09L127.48,0L127.48,0z"/>
		</g>
		<g class="st5">
			<path class="st6" d="M106.39,60.15h6.62v1.96h-2.27v11.76h-2.08V62.11h-2.27V60.15z"/>
			<path class="st6" d="M114.62,73.87V60.15h2.08v5.78h2.47v-5.78h2.08v13.71h-2.08v-5.98h-2.47v5.98H114.62z"/>
			<path class="st6" d="M127.61,70.83h-2.23l-0.45,3.04h-2.08l2.27-13.71h2.78l2.27,13.71h-2.12L127.61,70.83z M127.33,68.83
				l-0.84-5.74l-0.84,5.74H127.33z"/>
			<path class="st6" d="M131.78,60.15h2.29l2.64,9.21v-9.21h2.04v13.71h-2.19l-2.74-8.78v8.78h-2.04V60.15z"/>
			<path class="st6" d="M143.89,68.22l-0.78,1.51v4.13h-2.08V60.15h2.08v5.56l2.74-5.56h2.23l-2.92,5.82l3.13,7.9h-2.23
				L143.89,68.22z"/>
		</g>
		<g class="st5">
			<path class="st6" d="M119.41,80.4l-4.64,13.29v9.57h-3.46v-9.57l-4.64-13.29h3.69l2.68,8.72l2.74-8.72H119.41z"/>
			<path class="st6" d="M121.07,98.06V85.59c0-3.3,2.22-5.52,5.55-5.52c3.33,0,5.55,2.22,5.55,5.52v12.47c0,3.3-2.22,5.52-5.55,5.52
				C123.29,103.58,121.07,101.36,121.07,98.06z M128.71,98.06V85.59c0-1.44-0.82-2.25-2.09-2.25c-1.27,0-2.09,0.82-2.09,2.25v12.47
				c0,1.44,0.82,2.25,2.09,2.25C127.9,100.32,128.71,99.5,128.71,98.06z"/>
			<path class="st6" d="M135.54,98.23V80.4H139v17.83c0,1.34,0.82,2.09,1.93,2.09c1.11,0,1.93-0.75,1.93-2.09V80.4h3.4v17.83
				c0,3.2-2.16,5.35-5.32,5.35C137.76,103.58,135.54,101.43,135.54,98.23z"/>
		</g>
	</g>
</g>
</svg>
